<?xml version="1.0" encoding="UTF-8" standalone="no"?>
<!-- Created with Inkscape (http://www.inkscape.org/) -->

<svg
   xmlns:dc="http://purl.org/dc/elements/1.1/"
   xmlns:cc="http://creativecommons.org/ns#"
   xmlns:rdf="http://www.w3.org/1999/02/22-rdf-syntax-ns#"
   xmlns:svg="http://www.w3.org/2000/svg"
   xmlns="http://www.w3.org/2000/svg"
   xmlns:sodipodi="http://sodipodi.sourceforge.net/DTD/sodipodi-0.dtd"
   xmlns:inkscape="http://www.inkscape.org/namespaces/inkscape"
   width="498"
   height="508"
   viewBox="0 0 124.5 127"
   id="svg4005"
   version="1.1"
   inkscape:version="0.91 r13725"
   sodipodi:docname="nodes_class_diagram.svg">
  <defs
     id="defs4">
    <style type="text/css">
      @import url('https://fonts.googleapis.com/css?family=Source+Sans+Pro');
    </style>
    <marker
       orient="auto"
       refY="0"
       refX="0"
       id="inherit"
       style="overflow:visible">
      <path
         id="path4249"
         d="m 0,0 -24,-12 0,24 z"
         style="fill:#ffffff;fill-opacity:1;fill-rule:evenodd;stroke:#000000;stroke-width:1pt;stroke-opacity:1"
         inkscape:connector-curvature="0" />
    </marker>
  </defs>
  <sodipodi:namedview
     id="base"
     pagecolor="#ffffff"
     bordercolor="#666666"
     borderopacity="1.0"
     inkscape:pageopacity="0.0"
     inkscape:pageshadow="2"
     inkscape:document-units="px"
     showgrid="true"
     units="px"
     fit-margin-top="1"
     fit-margin-right="1"
     fit-margin-bottom="1"
     fit-margin-left="1">
    <inkscape:grid
       type="xygrid"
       id="grid4013"
       originy="-3" />
  </sodipodi:namedview>
  <metadata
     id="metadata4010">
    <rdf:RDF>
      <cc:Work
         rdf:about="">
        <dc:format>image/svg+xml</dc:format>
        <dc:type
           rdf:resource="http://purl.org/dc/dcmitype/StillImage" />
        <dc:title />
      </cc:Work>
    </rdf:RDF>
  </metadata>
  <g
     inkscape:label="Layer 1"
     inkscape:groupmode="layer"
     id="layer1"
     transform="translate(6,6)">
    <g
       transform="translate(22.5,12.5)"
       id="host">
      <path
         style="fill:none;fill-rule:evenodd;stroke:#000000;stroke-width:0.5;stroke-linecap:butt;stroke-linejoin:miter;stroke-miterlimit:4;stroke-dasharray:none;stroke-opacity:1"
         d="m -22.5,-7.5 40,0 0,20 -40,0 z m 0,0 5,-5 40,0 0,20 -5,5 m 0,-20 5,-5"
         id="path4942"
         inkscape:connector-curvature="0" />
      <text
         xml:space="preserve"
         style="font-style:normal;font-variant:normal;font-weight:normal;font-stretch:normal;font-size:12.5px;line-height:125%;font-family:'Source Sans Pro';-inkscape-font-specification:'Source Sans Pro';text-align:center;letter-spacing:0px;word-spacing:0px;text-anchor:middle;fill:#000000;fill-opacity:1;stroke:none;stroke-width:1px;stroke-linecap:butt;stroke-linejoin:miter;stroke-opacity:1"
         x="-2.5"
         y="6.5250001"
         id="text4944"
         sodipodi:linespacing="125%"><tspan
           sodipodi:role="line"
           id="tspan4946"
           x="-2.5"
           y="6.5250001">Host</tspan></text>
    </g>
    <g
       id="router"
       transform="translate(22.5,57.5)">
      <path
         inkscape:connector-curvature="0"
         id="path4821"
         d="m -22.5,-7.5 40,0 0,20 -40,0 z m 0,0 5,-5 40,0 0,20 -5,5 m 0,-20 5,-5"
         style="fill:none;fill-rule:evenodd;stroke:#800000;stroke-width:0.5;stroke-linecap:butt;stroke-linejoin:miter;stroke-miterlimit:4;stroke-dasharray:none;stroke-opacity:1" />
      <text
         sodipodi:linespacing="125%"
         id="text4817"
         y="6.5250001"
         x="-2.5"
         style="font-style:normal;font-variant:normal;font-weight:normal;font-stretch:normal;font-size:12.5px;line-height:125%;font-family:'Source Sans Pro';-inkscape-font-specification:'Source Sans Pro';text-align:center;letter-spacing:0px;word-spacing:0px;text-anchor:middle;fill:#800000;fill-opacity:1;stroke:none;stroke-width:1px;stroke-linecap:butt;stroke-linejoin:miter;stroke-opacity:1"
         xml:space="preserve"><tspan
           y="6.5250001"
           x="-2.5"
           id="tspan4819"
           sodipodi:role="line">Router</tspan></text>
    </g>
    <g
       id="6ln"
       transform="translate(90,12.5)">
      <path
         inkscape:connector-curvature="0"
         id="path4902"
         d="m -22.5,-7.5 40,0 0,20 -40,0 z m 0,0 5,-5 40,0 0,20 -5,5 m 0,-20 5,-5"
         style="fill:none;fill-rule:evenodd;stroke:#008000;stroke-width:0.5;stroke-linecap:butt;stroke-linejoin:miter;stroke-miterlimit:4;stroke-dasharray:none;stroke-opacity:1" />
      <text
         sodipodi:linespacing="125%"
         id="text4904"
         y="6.5250001"
         x="-2.5"
         style="font-style:normal;font-variant:normal;font-weight:normal;font-stretch:normal;font-size:12.5px;line-height:125%;font-family:'Source Sans Pro';-inkscape-font-specification:'Source Sans Pro';text-align:center;letter-spacing:0px;word-spacing:0px;text-anchor:middle;fill:#008000;fill-opacity:1;stroke:none;stroke-width:1px;stroke-linecap:butt;stroke-linejoin:miter;stroke-opacity:1"
         xml:space="preserve"><tspan
           y="6.5250001"
           x="-2.5"
           id="tspan4906"
           sodipodi:role="line">6LN</tspan></text>
    </g>
    <g
       id="6lr"
       transform="translate(90,57.5)">
      <path
         style="fill:none;fill-rule:evenodd;stroke:#7f007f;stroke-width:0.5;stroke-linecap:butt;stroke-linejoin:miter;stroke-miterlimit:4;stroke-dasharray:none;stroke-opacity:1"
         d="m -22.5,-7.5 40,0 0,20 -40,0 z m 0,0 5,-5 40,0 0,20 -5,5 m 0,-20 5,-5"
         id="path4910"
         inkscape:connector-curvature="0" />
      <text
         xml:space="preserve"
         style="font-style:normal;font-variant:normal;font-weight:normal;font-stretch:normal;font-size:12.5px;line-height:125%;font-family:'Source Sans Pro';-inkscape-font-specification:'Source Sans Pro';text-align:center;letter-spacing:0px;word-spacing:0px;text-anchor:middle;fill:#7f007f;fill-opacity:1;stroke:none;stroke-width:1px;stroke-linecap:butt;stroke-linejoin:miter;stroke-opacity:1"
         x="-2.5"
         y="6.5250001"
         id="text4912"
         sodipodi:linespacing="125%"><tspan
           sodipodi:role="line"
           id="tspan4914"
           x="-2.5"
           y="6.5250001">6LR</tspan></text>
    </g>
    <g
       id="6lbr"
       transform="translate(90,102.5)"
       style="fill:#008080">
      <path
         inkscape:connector-curvature="0"
         id="path4918"
         d="m -22.5,-7.5 40,0 0,20 -40,0 z m 0,0 5,-5 40,0 0,20 -5,5 m 0,-20 5,-5"
         style="fill:none;fill-rule:evenodd;stroke:#007f7f;stroke-width:0.5;stroke-linecap:butt;stroke-linejoin:miter;stroke-miterlimit:4;stroke-dasharray:none;stroke-opacity:1" />
      <text
         sodipodi:linespacing="125%"
         id="text4920"
         y="6.5250001"
         x="-2.5"
         style="font-style:normal;font-variant:normal;font-weight:normal;font-stretch:normal;font-size:12.5px;line-height:125%;font-family:'Source Sans Pro';-inkscape-font-specification:'Source Sans Pro';text-align:center;letter-spacing:0px;word-spacing:0px;text-anchor:middle;fill:#007f7f;fill-opacity:1;stroke:none;stroke-width:1px;stroke-linecap:butt;stroke-linejoin:miter;stroke-opacity:1"
         xml:space="preserve"><tspan
           y="6.5250001"
           x="-2.5"
           id="tspan4922"
           sodipodi:role="line">6LBR</tspan></text>
    </g>
    <path
       style="fill:none;fill-rule:evenodd;stroke:#000000;stroke-width:0.5;stroke-linecap:butt;stroke-linejoin:miter;stroke-miterlimit:4;stroke-dasharray:none;stroke-opacity:1;marker-end:url(#inherit)"
       d="m 67.5,12.5 -25,0"
       id="path4948"
       inkscape:connector-curvature="0" />
    <path
       inkscape:connector-curvature="0"
       id="path5518"
       d="M 20,47.5 20,25"
       style="fill:none;fill-rule:evenodd;stroke:#000000;stroke-width:0.5;stroke-linecap:butt;stroke-linejoin:miter;stroke-miterlimit:4;stroke-dasharray:none;stroke-opacity:1;marker-end:url(#inherit)" />
    <path
       inkscape:connector-curvature="0"
       id="path5514"
       d="M 90,47.5 90,25"
       style="fill:none;fill-rule:evenodd;stroke:#000000;stroke-width:0.5;stroke-linecap:butt;stroke-linejoin:miter;stroke-miterlimit:4;stroke-dasharray:none;stroke-opacity:1;marker-end:url(#inherit)" />
    <path
       inkscape:connector-curvature="0"
       id="path5520"
       d="m 67.5,57.5 -25,0"
       style="fill:none;fill-rule:evenodd;stroke:#000000;stroke-width:0.5;stroke-linecap:butt;stroke-linejoin:miter;stroke-miterlimit:4;stroke-dasharray:none;stroke-opacity:1;marker-end:url(#inherit)" />
    <path
       style="fill:none;fill-rule:evenodd;stroke:#000000;stroke-width:0.5;stroke-linecap:butt;stroke-linejoin:miter;stroke-miterlimit:4;stroke-dasharray:none;stroke-opacity:1;marker-end:url(#inherit)"
       d="M 90,92.5 90,70"
       id="path5516"
       inkscape:connector-curvature="0" />
    <path
       style="fill:none;fill-opacity:1;stroke:#7f7f00;stroke-width:1;stroke-miterlimit:4;stroke-dasharray:3, 3;stroke-dashoffset:0;stroke-opacity:1"
       d="M 6,-4 C 0.46,-4 -4,0.46 -4,6 l 0,60 c 0,5.54 4.46,10 10,10 l 47.5,0 0,35 c 0,5.54 4.46,10 10,10 l 45,0 c 5.54,0 10,-4.46 10,-10 l 0,-60 c 0,-5.54 -4.46,-10 -10,-10 L 61,41 61,6 C 61,0.46 56.54,-4 51,-4 L 6,-4 Z"
       transform="translate(-1,-1)"
       id="rect4167"
       inkscape:connector-curvature="0" />
    <path
       style="fill:none;stroke:#ff6600;stroke-width:1;stroke-miterlimit:4;stroke-dasharray:3, 3;stroke-dashoffset:0"
       d="M 11,46 C 5.46,46 1,50.46 1,56 l 0,60 c 0,5.54 4.46,10 10,10 l 102.5,0 c 5.54,0 10,-4.46 10,-10 l 0,-15 c 0,-5.54 -4.46,-10 -10,-10 L 66,91 66,56 C 66,50.46 61.54,46 56,46 l -45,0 z"
       transform="translate(-6,-6)"
       id="rect3531"
       inkscape:connector-curvature="0" />
    <path
       style="fill:none;stroke:#ffcc00;stroke-width:1;stroke-miterlimit:4;stroke-dasharray:3, 3;stroke-dashoffset:0"
       d="M 11,1 C 5.46,1 1,5.46 1,11 l 0,15 c 0,5.54 4.46,10 10,10 l 51.5,0 0,35 c 0,5.54 4.46,10 10,10 l 41,0 c 5.54,0 10,-4.46 10,-10 l 0,-45 0,-15 c 0,-5.54 -4.46,-10 -10,-10 L 11,1 Z"
       transform="translate(-6,-6)"
       id="rect4342"
       inkscape:connector-curvature="0" />
  </g>
</svg>
